<svg xmlns="http://www.w3.org/2000/svg" width="20" height="15" viewBox="0 0 20 15"><g><g><path fill="#242626" d="M13.334 7.5a3.337 3.337 0 0 1-5.378 2.633L6.351 11.74c1.208.505 2.433.76 3.65.76 4.12 0 8.029-3.923 9.022-5-.63-.68-2.425-2.498-4.695-3.739l-1.694 1.695c.454.582.7 1.294.7 2.045zm-5.69 1.767a.42.42 0 0 1 .006-.006l4.113-4.113a.344.344 0 0 1 .01-.01l2.174-2.175a.418.418 0 0 1 .02-.02L16.789.122a.417.417 0 0 1 .59.589L14.94 3.147c2.85 1.619 4.87 3.978 4.96 4.083a.416.416 0 0 1 0 .539c-.192.227-4.767 5.564-9.9 5.564-1.434 0-2.873-.322-4.283-.961L3.21 14.878a.415.415 0 0 1-.589 0 .417.417 0 0 1 0-.589l5.015-5.015a.424.424 0 0 1 .007-.007zM10 10a2.503 2.503 0 0 0 2.038-3.95L8.552 9.539c.42.3.921.462 1.448.462zm.919-5.294a.415.415 0 0 1-.483.338A2.506 2.506 0 0 0 10 4.999a2.503 2.503 0 0 0-2.5 2.5c0 .15.02.295.045.436a.417.417 0 0 1-.82.146 3.268 3.268 0 0 1-.058-.582A3.337 3.337 0 0 1 10 4.166c.199 0 .392.024.581.058.226.04.378.256.338.482zm2.077-2.032a.411.411 0 0 1-.527.261C11.607 2.646 10.776 2.5 10 2.5 5.85 2.5 1.915 6.48.956 7.522c.449.573 1.649 1.98 3.402 3.146a.416.416 0 0 1-.23.764.41.41 0 0 1-.23-.07C1.51 9.776.133 7.82.076 7.738a.417.417 0 0 1 .023-.508C.29 7.003 4.866 1.666 10 1.666c.866 0 1.786.16 2.734.48.219.073.335.31.262.528z"/></g></g></svg>