<svg xmlns="http://www.w3.org/2000/svg" width="16" height="13" viewBox="0 0 16 13"><g><g><path fill="#12d5b8" d="M15.559.24a6.603 6.603 0 0 1-2.086.797A3.283 3.283 0 0 0 7.88 4.03 9.319 9.319 0 0 1 1.114.6a3.26 3.26 0 0 0-.443 1.65c0 1.139.58 2.144 1.46 2.732A3.28 3.28 0 0 1 .643 4.57v.04a3.287 3.287 0 0 0 2.632 3.22 3.321 3.321 0 0 1-1.482.055 3.287 3.287 0 0 0 3.065 2.28A6.586 6.586 0 0 1 .783 11.57c-.265 0-.526-.015-.783-.045A9.297 9.297 0 0 0 5.032 13c6.037 0 9.338-5.002 9.338-9.34l-.01-.425A6.607 6.607 0 0 0 16 1.538c-.589.26-1.22.438-1.885.517A3.301 3.301 0 0 0 15.56.24z"/></g></g></svg>