<svg xmlns="http://www.w3.org/2000/svg" width="18" height="10" viewBox="0 0 18 10"><g><g><path fill="#12d5b8" d="M17.903 9.032a1.163 1.163 0 0 0-.06-.114c-.313-.548-.91-1.22-1.79-2.017l-.019-.019-.01-.009-.009-.009h-.01c-.399-.371-.652-.62-.758-.749-.194-.243-.238-.49-.132-.74.075-.188.357-.586.844-1.195.256-.322.459-.58.609-.776 1.08-1.4 1.55-2.294 1.406-2.683l-.056-.092c-.038-.054-.135-.104-.29-.15a1.51 1.51 0 0 0-.6-.023l-2.7.018a.359.359 0 0 0-.187.005l-.122.027-.046.023-.038.028a.413.413 0 0 0-.103.095.621.621 0 0 0-.093.16 14.723 14.723 0 0 1-1.003 2.054 19.35 19.35 0 0 1-.637.981c-.194.277-.356.481-.488.612a3.37 3.37 0 0 1-.356.315c-.106.08-.187.113-.243.1a7.517 7.517 0 0 1-.16-.036.615.615 0 0 1-.21-.224.984.984 0 0 1-.108-.356 3.804 3.804 0 0 1-.033-.37 7.5 7.5 0 0 1 .005-.438c.006-.189.009-.316.009-.383 0-.232.005-.483.014-.753l.023-.644c.007-.158.01-.326.01-.502 0-.177-.011-.315-.033-.415a1.392 1.392 0 0 0-.098-.292.496.496 0 0 0-.192-.22 1.1 1.1 0 0 0-.314-.123C9.594.045 9.172.006 8.66 0 7.498-.013 6.75.06 6.42.22a1.26 1.26 0 0 0-.356.273c-.113.134-.128.207-.047.22.375.054.64.185.797.392l.056.11c.044.079.087.219.131.42.044.2.072.422.084.666.031.444.031.824 0 1.14-.031.317-.06.564-.089.74a1.452 1.452 0 0 1-.239.63.16.16 0 0 1-.047.046.719.719 0 0 1-.253.045c-.087 0-.193-.042-.318-.127a2.232 2.232 0 0 1-.39-.352 4.715 4.715 0 0 1-.454-.625 10.838 10.838 0 0 1-.524-.95l-.15-.264c-.094-.17-.222-.419-.384-.744a14.21 14.21 0 0 1-.431-.945.603.603 0 0 0-.225-.292L3.534.574a.65.65 0 0 0-.15-.077 1.025 1.025 0 0 0-.216-.06L.601.456C.338.456.16.513.067.629L.029.684A.289.289 0 0 0 .001.83c0 .067.019.15.056.246.375.859.783 1.686 1.223 2.483.44.798.823 1.44 1.148 1.926.325.487.656.947.993 1.379.338.432.56.709.67.83.11.122.195.214.258.274l.234.22c.15.146.37.32.66.524.291.204.613.405.966.603.353.198.764.359 1.232.484a4.36 4.36 0 0 0 1.368.15h1.078c.219-.018.384-.085.497-.2l.037-.046a.595.595 0 0 0 .07-.169.903.903 0 0 0 .033-.25 2.93 2.93 0 0 1 .06-.708c.048-.21.1-.368.16-.475a1.176 1.176 0 0 1 .361-.401.603.603 0 0 1 .075-.032c.15-.05.327-.002.53.141s.393.32.571.53c.178.21.392.445.642.707.25.262.469.456.656.584l.187.11c.126.073.288.14.488.2.2.062.374.077.525.046l2.398-.036c.238 0 .422-.038.553-.114.131-.076.21-.16.235-.251a.69.69 0 0 0 .004-.31 1.116 1.116 0 0 0-.066-.243z"/></g></g></svg>