<svg xmlns="http://www.w3.org/2000/svg" width="56" height="55" viewBox="0 0 56 55"><defs><clipPath id="nkn2a"><path fill="#fff" d="M28 32.713l4.943 2.286-.677-5.341L36 25.728l-5.362-1.014L28 19.999m0 12.714l-4.944 2.286.678-5.341L20 25.728l5.362-1.014L28 19.999"/></clipPath></defs><g><g><path fill="none" stroke="#ffd953" stroke-miterlimit="20" stroke-width="2" d="M28 32.713v0l4.943 2.286v0l-.677-5.341v0L36 25.728v0l-5.362-1.014v0L28 19.999v0m0 12.714v0l-4.944 2.286v0l.678-5.341v0L20 25.728v0l5.362-1.014v0L28 19.999v0" clip-path="url(&quot;#nkn2a&quot;)"/></g></g></svg>