<svg xmlns="http://www.w3.org/2000/svg" width="20" height="13" viewBox="0 0 20 13"><g><g><path fill="#242626" d="M19.902 6.769c-.193.227-4.768 5.564-9.902 5.564-5.134 0-9.71-5.337-9.902-5.564a.418.418 0 0 1 0-.539C.291 6.003 4.866.666 10 .666c5.983 0 9.768 5.368 9.926 5.597a.417.417 0 0 1-.024.506zm-.857-.292c-.83-1.058-4.23-4.978-9.045-4.978-4.122 0-8.031 3.925-9.024 5 .995 1.076 4.908 5 9.024 5 4.15 0 8.087-3.981 9.045-5.022zm-5.712.022A3.337 3.337 0 0 1 10 9.833a3.337 3.337 0 0 1-3.333-3.334A3.337 3.337 0 0 1 10 3.166 3.337 3.337 0 0 1 13.333 6.5zm-.833 0C12.5 5.121 11.378 4 10 4a2.503 2.503 0 0 0-2.5 2.5C7.5 7.878 8.622 9 10 9s2.5-1.121 2.5-2.5z"/></g></g></svg>