<svg xmlns="http://www.w3.org/2000/svg" width="11" height="11" viewBox="0 0 11 11"><g><g><path fill="#fff" d="M11 9.642c0 .363-.141.704-.398.96a1.348 1.348 0 0 1-.96.398c-.363 0-.703-.141-.96-.398L6.814 8.734a4.616 4.616 0 0 1-2.177.54 4.607 4.607 0 0 1-3.279-1.358A4.607 4.607 0 0 1 0 4.637 4.642 4.642 0 0 1 4.637 0C5.876 0 7.04.482 7.916 1.358a4.607 4.607 0 0 1 1.358 3.279c0 .771-.187 1.514-.54 2.176l1.868 1.869c.257.256.398.597.398.96zM7.203 4.637a2.569 2.569 0 0 0-2.566-2.566 2.569 2.569 0 0 0-2.566 2.566 2.569 2.569 0 0 0 2.566 2.566 2.569 2.569 0 0 0 2.566-2.566z"/></g></g></svg>